# xmcd
#
# Track frame offsets:
#	150
#	20095
#	38050
#	55930
#	79159
#	96048
#	139518
#	158452
#	171288
#
# Disc length: 2529 seconds
#
# Revision: 0
# Processed by: cddbd v1.4PL0 Copyright (c) Steve Scherf et al.
# Submitted via: EasyCDDAExtractor 5.0.4.1
#
DISCID=6709df09
DTITLE=Gloria Gaynor - The Fabulous Voice of
DYEAR=1900
DGENRE=Blues
TTITLE0=The Heat is On
TTITLE1=Feel So Real
TTITLE2=Everytime You Go Away
TTITLE3=Broken Wings
TTITLE4=Suddenly
TTITLE5=Hits Medley
TTITLE6=The Power of Love
TTITLE7=Every Breath You Take
TTITLE8=I Want to Know What Love Is
EXTD=
EXTT0=
EXTT1=
EXTT2=
EXTT3=
EXTT4=
EXTT5=
EXTT6=
EXTT7=
EXTT8=
PLAYORDER=
